# xmcd
#
# Track frame offsets:
#	150
#	29141
#	54816
#	60328
#	76847
#	102699
#	136894
#	148964
#	159345
#	175743
#	198693
#
# Disc length: 2800 seconds
#
# Revision: 1
# Processed by: cddbd v1.5.1PL2 Copyright (c) Steve Scherf et al.
# Submitted via: EasyCDDAExtractor 6.0.0.1
#
DISCID=970aee0b
DTITLE=Brigantini - Sound Ca Non Sura
DYEAR=1900
DGENRE=Blues
TTITLE0=U Curiusu
TTITLE1=Semu Fujuti Frischi
TTITLE2=Puppicità
TTITLE3=Non ci Rumpiri a Testa
TTITLE4=O' Pà che Bellu U' Cinema
TTITLE5=A' Purga (1943 Version)
TTITLE6=Cha Cha Cha Bau Bau
TTITLE7=Comu ci Mangia
TTITLE8=Fazzu ù Cani
TTITLE9=Non mi Teniri à Funcia
TTITLE10=Puppera Fratis
EXTD=
EXTT0=
EXTT1=
EXTT2=
EXTT3=
EXTT4=
EXTT5=
EXTT6=
EXTT7=
EXTT8=
EXTT9=
EXTT10=
PLAYORDER=
